<svg xmlns="http://www.w3.org/2000/svg" width="800" height="600" viewBox="0 0 800 600"><defs><filter id="c"><feGaussianBlur stdDeviation="8"/></filter><filter id="d"><feDropShadow dx="2" dy="2" flood-opacity=".5" stdDeviation="3"/></filter><radialGradient id="b" cx="50%" cy="50%" r="50%"><stop offset="0%" style="stop-color:#e94560;stop-opacity:.8"/><stop offset="100%" style="stop-color:#e94560;stop-opacity:0"/></radialGradient><linearGradient id="a" x1="0%" x2="100%" y1="0%" y2="100%"><stop offset="0%" style="stop-color:#1a1a2e;stop-opacity:1"/><stop offset="100%" style="stop-color:#16213e;stop-opacity:1"/></linearGradient></defs><path fill="url(#a)" d="M0 0h800v600H0z"/><circle cx="400" cy="300" r="200" fill="url(#b)" filter="url(#c)" opacity=".6"/><path stroke="#fff" stroke-opacity=".05" d="M0 100h800M0 200h800M0 300h800M0 400h800M0 500h800M100 0v600M200 0v600M300 0v600M400 0v600M500 0v600M600 0v600M700 0v600"/><g fill="none" stroke="#e94560" stroke-width="2" opacity=".7"><path d="m400 150 50 25v50l-50 25-50-25v-50z"/><path stroke-width="1" d="m400 130 65 37v73l-65 38-65-38v-73z" opacity=".3"/><path stroke-width="1" d="m400 110 80 48v97l-80 48-80-48v-97z" opacity=".15"/></g><circle cx="400" cy="200" r="30" fill="#e94560" filter="url(#d)"/><circle cx="400" cy="200" r="20" fill="#ff6b8a"/><circle cx="400" cy="200" r="8" fill="#fff"/><path fill="none" stroke="#0f3460" stroke-width="3" d="M150 300q250-200 500 0m-500 0q250 200 500 0" opacity=".8"/><g transform="translate(80 370)"><path fill="#fff" d="M0 0h640v2H0z" opacity=".1"/><rect width="480" height="12" y="20" fill="#e94560" opacity=".8" rx="6"/><rect width="320" height="12" y="40" fill="#0f3460" opacity=".9" rx="6"/><rect width="560" height="12" y="60" fill="#533483" opacity=".8" rx="6"/><rect width="200" height="12" y="80" fill="#e94560" opacity=".6" rx="6"/></g><text x="400" y="490" fill="#fff" filter="url(#d)" font-family="system-ui, -apple-system, sans-serif" font-size="28" font-weight="700" text-anchor="middle">ImageArm</text><text x="400" y="522" fill="#e94560" font-family="system-ui, -apple-system, sans-serif" font-size="14" letter-spacing="4" text-anchor="middle">TEST SVG FILE</text><text x="400" y="548" fill="#fff" font-family="monospace" font-size="11" opacity=".5" text-anchor="middle">800 × 600 — Optimisable avec svgo</text><path fill="none" stroke="#e94560" stroke-width="2" d="M20 20h40v40m680-40h40v40M20 580v-40h40m720 40v-40h-40" opacity=".5"/></svg>